<svg width="150" height="85" viewBox="0 0 150 85" fill="none" xmlns="http://www.w3.org/2000/svg">
<path fill-rule="evenodd" clip-rule="evenodd" d="M124 50C124 22.3858 101.614 0 74 0C46.3858 0 24 22.3858 24 50H124Z" fill="white"/>
<path d="M117 42.5C117 65.9721 97.9721 85 74.5 85C51.0279 85 32 65.9721 32 42.5C32 19.0279 51.0279 -1.29083e-05 74.5 -1.29083e-05C97.9721 -1.29083e-05 117 19.0279 117 42.5Z" fill="white"/>
<path d="M99 46C99 59.8071 87.8071 71 74 71C60.1929 71 49 59.8071 49 46C49 32.1929 60.1929 21 74 21C87.8071 21 99 32.1929 99 46Z" fill="black"/>
<ellipse cx="75" cy="52" rx="75" ry="6" fill="white"/>
</svg>
