<svg width="245" height="49" viewBox="0 0 245 49" fill="none" xmlns="http://www.w3.org/2000/svg">
<path d="M191.163 0.727295H205.313L212.468 29.9958H213.022L229.873 0.727295H244.022L236.174 48H225.048L229.873 18.9624H229.48L213.369 47.7H206.282L199.727 18.8008H199.335L194.441 48H183.315L191.163 0.727295Z" fill="black"/>
<path d="M170.599 0.727295H182.002L176.947 31.2191C176.362 34.743 175.016 37.813 172.908 40.429C170.815 43.0296 168.145 45.0455 164.898 46.4766C161.651 47.8923 158.035 48.6002 154.049 48.6002C150.048 48.6002 146.671 47.8923 143.916 46.4766C141.162 45.0455 139.169 43.0296 137.938 40.429C136.707 37.813 136.376 34.743 136.945 31.2191L142 0.727295H153.426L148.51 30.2266C148.248 31.8577 148.371 33.3119 148.879 34.5892C149.402 35.851 150.249 36.8512 151.418 37.5899C152.588 38.3131 154.019 38.6747 155.711 38.6747C157.419 38.6747 158.981 38.3131 160.397 37.5899C161.813 36.8512 162.982 35.851 163.906 34.5892C164.829 33.3119 165.421 31.8577 165.683 30.2266L170.599 0.727295Z" fill="black"/>
<path d="M88.6074 48L96.4554 0.727295H115.983C119.522 0.727295 122.477 1.36591 124.847 2.64313C127.217 3.90497 128.902 5.72079 129.902 8.09058C130.902 10.445 131.133 13.2379 130.594 16.4695C130.071 19.7318 128.902 22.5094 127.086 24.8022C125.285 27.0797 122.962 28.8186 120.115 30.0188C117.283 31.2191 114.067 31.8193 110.466 31.8193H98.1174L99.6408 22.8171H109.866C111.574 22.8171 113.052 22.594 114.298 22.1478C115.545 21.6861 116.537 20.9936 117.276 20.0703C118.03 19.1317 118.53 17.9314 118.776 16.4695C119.007 15.0076 118.899 13.7996 118.453 12.8455C118.022 11.8761 117.26 11.1528 116.168 10.6758C115.091 10.1834 113.706 9.93717 112.013 9.93717H106.381L100.033 48H88.6074ZM118.799 26.3949L126.993 48H114.529L106.589 26.3949H118.799Z" fill="black"/>
<path d="M46.4902 48L54.3382 0.727295H87.2999L85.7303 10.0064H64.1944L62.6248 19.701H82.4757L80.9061 29.0032H61.0552L59.4856 38.7209H81.0215L79.4519 48H46.4902Z" fill="black"/>
<path d="M0.945312 48L8.79332 0.727295H28.321C31.8603 0.727295 34.8149 1.36591 37.1847 2.64313C39.5545 3.90497 41.2395 5.72079 42.2397 8.09058C43.2399 10.445 43.4708 13.2379 42.9322 16.4695C42.409 19.7318 41.2395 22.5094 39.4237 24.8022C37.6232 27.0797 35.2996 28.8186 32.4528 30.0188C29.6213 31.2191 26.4052 31.8193 22.8043 31.8193H10.4553L11.9787 22.8171H22.2042C23.9123 22.8171 25.3896 22.594 26.636 22.1478C27.8825 21.6861 28.875 20.9936 29.6136 20.0703C30.3677 19.1317 30.8678 17.9314 31.114 16.4695C31.3448 15.0076 31.2371 13.7996 30.7908 12.8455C30.36 11.8761 29.5982 11.1528 28.5057 10.6758C27.4285 10.1834 26.0436 9.93717 24.3509 9.93717H18.7188L12.3711 48H0.945312ZM31.1371 26.3949L39.3313 48H26.8668L18.9265 26.3949H31.1371Z" fill="black"/>
</svg>
